<?xml version="1.0" encoding="UTF-8" standalone="no"?>
<svg id="svg2" xmlns:rdf="http://www.w3.org/1999/02/22-rdf-syntax-ns#" xmlns="http://www.w3.org/2000/svg" version="1.1" xmlns:cc="http://creativecommons.org/ns#" xmlns:dc="http://purl.org/dc/elements/1.1/" viewBox="0 0 50 10">
 <g id="layer1" transform="translate(0 -1042.4)">
  <g id="g4146" transform="translate(-5.995 10.001)">
   <g id="g4144" transform="matrix(1 0 0 .99995 -.0050865 .055909)">
    <path id="path6179" d="m20.456 1038.3c-5.4304 2.4278-10.297 3.682-14.454 3.2932 4.55 1.2192 8.5053 0.8151 12.361 0.1379zm-10.913-1.8281c5.4304-2.4278 10.297-3.6819 14.454-3.2932-4.55-1.2192-8.5053-0.8151-12.361-0.1378z" stroke="#535d6c" stroke-width=".019" fill="#ff2a2a"/>
    <path id="path6185" d="m14.542 1035c1.2117 1.0566 2.9518 2.0041 5.3498 2.8157l-5.2496 2.1454c-1.9778-0.6884-3.6313-1.6781-4.9499-2.9791l4.8497-1.982" stroke="#ff2a2a" stroke-width=".018874" fill="#535d6c"/>
   </g>
   <path id="path4216" stroke-linejoin="round" d="m28.016 1037.5c-0.31738 0-0.57289-0.2276-0.57289-0.5102v-0.2635c0-0.2826 0.25552-0.5082 0.57289-0.5102l3.3852-0.01c0.39791 0 0.71824-0.2875 0.71824-0.6447s-0.32034-0.6448-0.71824-0.6448h-3.6852c-0.94874 0-1.7125 0.6857-1.7125 1.5373v0.7939c0 0.8518 0.76378 1.5373 1.7125 1.5373l3.8274 0.01c0.31738 0 0.57289 0.2276 0.57289 0.5102v0.2636c0 0.2826-0.25552 0.5082-0.57289 0.5102l-4.8217 0.01c-0.39791 0-0.71825 0.2875-0.71825 0.6447s0.32034 0.6447 0.71825 0.6447h5.1216c0.94874 0 1.7125-0.6856 1.7125-1.5373v-0.7939c0-0.8517-0.76378-1.5373-1.7125-1.5373zm6.1945 3.2237c0 0.3573 0.32034 0.6448 0.71825 0.6448s0.71825-0.2875 0.71825-0.6448l0.01167-5.8027h-1.4365zm1.4482-6.0899 0.0011-0.5928c0-0.3572-0.32034-0.6448-0.71825-0.6448s-0.71825 0.2876-0.71825 0.6448l-0.0011 0.5928zm10.99 6.7377c0.39791 0 0.71825-0.2875 0.71825-0.6448l0.0062-3.5313c0-1.2584-1.1285-2.2714-2.5303-2.2714h-1.1389c-0.7123 0-1.3532 0.2608-1.8121 0.6832-0.45863-0.4197-1.1057-0.6862-1.8154-0.6862h-1.1389c-1.4018 0-2.5303 1.013-2.5303 2.2714l-0.0062 3.5311c0 0.3573 0.32034 0.6449 0.71825 0.6449s0.71825-0.2876 0.71825-0.6449l0.0096-3.4494c0.0025-0.6727 0.6032-1.2142 1.3525-1.2142h0.60877c0.74927 0 1.3525 0.5415 1.3525 1.2142l0.0033 3.4494c0.000002 0.3573 0.32034 0.6449 0.71825 0.6449s0.71825-0.2876 0.71825-0.6449l0.0129-3.4479c0.0025-0.671 0.6032-1.2125 1.3525-1.2125h0.60877c0.74927 0 1.3525 0.5415 1.3525 1.214l0.0033 3.4496c0.000001 0.3573 0.32034 0.6448 0.71825 0.6448zm3.3296-6.4505c-1.0667 0-1.9255 0.771-1.9255 1.7286v2.9961c0 0.9575 0.8588 1.7284 1.9255 1.7284h4.0816c1.0667 0 1.9255-0.7708 1.9255-1.7284v-2.9961c0-0.9576-0.8588-1.7286-1.9255-1.7286zm0.73907 1.136h2.6034c0.68039 0 1.2282 0.4917 1.2282 1.1024v1.976c0 0.6106-0.54783 1.1024-1.2282 1.1024h-2.6034c-0.68039 0-1.2281-0.4918-1.2281-1.1024v-1.976c0-0.6107 0.54771-1.1024 1.2281-1.1024z" stroke="#535d6c" stroke-linecap="round" stroke-width=".017717" fill="#ff2a2a"/>
  </g>
 </g>
</svg>
