<?xml version="1.0" encoding="UTF-8" standalone="no"?>
<svg id="svg2" xmlns:rdf="http://www.w3.org/1999/02/22-rdf-syntax-ns#" xmlns="http://www.w3.org/2000/svg" version="1.1" xmlns:cc="http://creativecommons.org/ns#" xmlns:dc="http://purl.org/dc/elements/1.1/" viewBox="0 0 30 20">
 <g id="layer1" transform="translate(0 -1032.4)">
  <g id="g4712" transform="translate(9.25e-7 1032.4)">
   <g id="g4251" transform="matrix(.065261 0 0 .060652 -9.2775 -11.754)" stroke-width="0.3">
    <path id="path6179" d="m455.61 291.3c-83.21 40.027-157.78 60.705-221.48 54.296 69.72 20.102 130.33 13.44 189.4 2.2728zm-167.21-30.14c83.21-40.03 157.78-60.71 221.47-54.3-69.72-20.1-130.32-13.44-189.4-2.27z" stroke="#535d6c" fill="#ffffff"/>
    <path id="path6185" d="m364.98 237.07c18.567 17.421 45.23 33.042 81.975 46.424l-80.441 35.373c-30.31-11.34-55.64-27.66-75.85-49.11l74.313-32.678" stroke="#ffffff" fill="#535d6c"/>
   </g>
   <path id="path4216" stroke-linejoin="round" d="m2.0213 16.114c-0.31738-0.002-0.57289-0.22759-0.57289-0.5103v-0.26355c0-0.28271 0.25552-0.50828 0.57289-0.5103l3.3852-0.0057c0.39791 0 0.71825-0.28762 0.71825-0.64489s-0.32034-0.64488-0.71825-0.64488l-3.6852 0.0028c-0.94874 0-1.7125 0.68577-1.7125 1.5376v0.79411c0 0.85183 0.76378 1.5376 1.7125 1.5376l3.8274 0.0056c0.31738 0.002 0.57289 0.22759 0.57289 0.5103v0.26355c0 0.28271-0.25552 0.50828-0.57289 0.5103l-4.8217 0.0057c-0.39791 0-0.71825 0.28762-0.71825 0.64489s0.32034 0.64488 0.71825 0.64488l5.1216-0.0028c0.94874 0 1.7125-0.68577 1.7125-1.5376v-0.79411c0-0.85183-0.76378-1.5376-1.7125-1.5376zm6.1945 3.2244c0 0.35727 0.32034 0.64488 0.71825 0.64488s0.71825-0.28762 0.71825-0.64488l0.01167-5.804h-1.4365zm1.4482-6.0912 0.0011-0.59289c0-0.35727-0.32034-0.64489-0.71825-0.64489s-0.71825 0.28762-0.71825 0.64489l-0.00113 0.59289zm10.99 6.7391c0.39791 0 0.71825-0.28762 0.71825-0.64489l0.0062-3.5321c0-1.2586-1.1285-2.2719-2.5303-2.2719h-1.1389c-0.7123 0-1.3532 0.2608-1.8121 0.6833-0.45863-0.41977-1.1057-0.68629-1.8154-0.68629h-1.1389c-1.4018 0-2.5303 1.0133-2.5303 2.2719l-0.0062 3.5321c0 0.35727 0.32034 0.64489 0.71825 0.64489s0.71825-0.28762 0.71825-0.64489l0.0096-3.4503c0.0025-0.67274 0.6032-1.2143 1.3525-1.2143h0.60877c0.74927 0 1.3525 0.54159 1.3525 1.2143l0.0033 3.4503c0.000002 0.35727 0.32034 0.64489 0.71825 0.64489s0.71825-0.28762 0.71825-0.64489l0.0129-3.4488c0.0025-0.67124 0.6032-1.2128 1.3525-1.2128h0.60877c0.74927 0 1.3525 0.54159 1.3525 1.2143l0.0033 3.4503c0.000001 0.35727 0.32034 0.64489 0.71825 0.64489zm3.3296-6.4518c-1.0667 0-1.9255 0.77108-1.9255 1.7289v2.9967c0 0.95777 0.8588 1.7289 1.9255 1.7289h4.0816c1.0667 0 1.9255-0.77108 1.9255-1.7289v-2.9967c0-0.95777-0.8588-1.7289-1.9255-1.7289zm0.73907 1.1363h2.6034c0.68039 0 1.2282 0.49176 1.2282 1.1027v1.9764c0 0.61089-0.54783 1.1028-1.2282 1.1028h-2.6034c-0.68039 0-1.2281-0.49187-1.2281-1.1028v-1.9764c0-0.61089 0.54771-1.1027 1.2281-1.1027z" stroke="#535d6c" stroke-linecap="round" stroke-width=".017718" fill="#ffffff"/>
  </g>
 </g>
</svg>
