<?xml version="1.0" encoding="UTF-8" standalone="no"?>
<svg id="svg2" xmlns:rdf="http://www.w3.org/1999/02/22-rdf-syntax-ns#" xmlns="http://www.w3.org/2000/svg" version="1.1" xmlns:cc="http://creativecommons.org/ns#" xmlns:dc="http://purl.org/dc/elements/1.1/" viewBox="0 0 10 10">
 <g id="layer1" transform="translate(0 -1042.4)">
  <path id="path4164" opacity="0.92" stroke-linejoin="round" d="m9.7132 1044.9c0.36923-0.3693 0.36924-0.9639 0-1.3332l-0.89985-0.9c-0.36923-0.3693-0.96373-0.3693-1.333 0l-2.4808 2.4813-2.4808-2.4813c-0.36923-0.3693-0.96373-0.3693-1.333 0l-0.89889 0.899c-0.36923 0.3693-0.36923 0.9639 0.000001 1.3331l2.4812 2.481-2.4812 2.481c-0.36923 0.3692-0.36923 0.9638-0.000001 1.3331l0.89889 0.899c0.36923 0.3693 0.96373 0.3693 1.333 0l2.4808-2.4813 2.4808 2.4813c0.36923 0.3693 0.96373 0.3693 1.333 0l0.89985-0.9c0.36924-0.3693 0.36923-0.9639 0-1.3332l-2.4819-2.4799z" stroke="#4d4d4d" stroke-linecap="round" stroke-width=".019983" fill="#59f"/>
 </g>
</svg>
